{
    "accessors" : [
        {
            "bufferView" : 0,
            "componentType" : 5123,
            "count" : 984,
            "max" : [
                327
            ],
            "min" : [
                0
            ],
            "type" : "SCALAR"
        },
        {
            "bufferView" : 1,
            "componentType" : 5126,
            "count" : 328,
            "max" : [
                10351.892578125,
                10194.6240234375,
                -0.0
            ],
            "min" : [
                -9727.5966796875,
                -10194.6240234375,
                -4.547473508864641e-13
            ],
            "type" : "VEC3"
        },
        {
            "bufferView" : 2,
            "componentType" : 5126,
            "count" : 328,
            "max" : [
                0.0,
                0.0,
                -0.999969482421875
            ],
            "min" : [
                0.0,
                0.0,
                -1.0
            ],
            "type" : "VEC3"
        },
        {
            "bufferView" : 3,
            "componentType" : 5126,
            "count" : 328,
            "max" : [
                1.0,
                0.011495843529701233,
                8.9499466323327e-14,
                1.0
            ],
            "min" : [
                0.999717652797699,
                -0.02376449480652809,
                -1.0440812710926783e-14,
                1.0
            ],
            "type" : "VEC4"
        },
        {
            "bufferView" : 4,
            "componentType" : 5126,
            "count" : 328,
            "max" : [
                1.0,
                0.9924038648605347
            ],
            "min" : [
                0.03015368990600109,
                0.007596135139465332
            ],
            "type" : "VEC2"
        },
        {
            "bufferView" : 5,
            "componentType" : 5123,
            "count" : 18042,
            "max" : [
                3471
            ],
            "min" : [
                0
            ],
            "type" : "SCALAR"
        },
        {
            "bufferView" : 6,
            "componentType" : 5126,
            "count" : 3472,
            "max" : [
                7688.72802734375,
                5260.23681640625,
                4.547473508864641e-13
            ],
            "min" : [
                -7688.72802734375,
                -5260.23681640625,
                -4525.68359375
            ],
            "type" : "VEC3"
        },
        {
            "bufferView" : 7,
            "componentType" : 5126,
            "count" : 3472,
            "max" : [
                1.0,
                1.0,
                1.0
            ],
            "min" : [
                -1.0,
                -1.0,
                -0.999969482421875
            ],
            "type" : "VEC3"
        },
        {
            "bufferView" : 8,
            "componentType" : 5126,
            "count" : 3472,
            "max" : [
                1.0,
                1.0,
                0.9570452570915222,
                1.0
            ],
            "min" : [
                -1.0,
                -1.0,
                -0.9446499943733215,
                -1.0
            ],
            "type" : "VEC4"
        },
        {
            "bufferView" : 9,
            "componentType" : 5126,
            "count" : 3472,
            "max" : [
                0.9795425534248352,
                0.9797606468200684
            ],
            "min" : [
                0.013437505811452866,
                0.018442153930664062
            ],
            "type" : "VEC2"
        }
    ],
    "asset" : {
        "generator" : "Khronos Blender glTF 2.0 exporter",
        "version" : "2.0"
    },
    "bufferViews" : [
        {
            "buffer" : 0,
            "byteLength" : 1968,
            "byteOffset" : 0,
            "target" : 34963
        },
        {
            "buffer" : 0,
            "byteLength" : 3936,
            "byteOffset" : 1968,
            "target" : 34962
        },
        {
            "buffer" : 0,
            "byteLength" : 3936,
            "byteOffset" : 5904,
            "target" : 34962
        },
        {
            "buffer" : 0,
            "byteLength" : 5248,
            "byteOffset" : 9840,
            "target" : 34962
        },
        {
            "buffer" : 0,
            "byteLength" : 2624,
            "byteOffset" : 15088,
            "target" : 34962
        },
        {
            "buffer" : 0,
            "byteLength" : 36084,
            "byteOffset" : 17712,
            "target" : 34963
        },
        {
            "buffer" : 0,
            "byteLength" : 41664,
            "byteOffset" : 53796,
            "target" : 34962
        },
        {
            "buffer" : 0,
            "byteLength" : 41664,
            "byteOffset" : 95460,
            "target" : 34962
        },
        {
            "buffer" : 0,
            "byteLength" : 55552,
            "byteOffset" : 137124,
            "target" : 34962
        },
        {
            "buffer" : 0,
            "byteLength" : 27776,
            "byteOffset" : 192676,
            "target" : 34962
        }
    ],
    "buffers" : [
        {
            "byteLength" : 220452,
            "uri" : "CloudTest_01.bin"
        }
    ],
    "extensionsUsed" : [
        "KHR_materials_unlit"
    ],
    "images" : [
        {
            "mimeType" : "image/jpeg",
            "name" : "himalayas-tiny.jpg",
            "uri" : "data:image/jpeg;base64,"
        }
    ],
    "materials" : [
        {
            "extensions" : {
                "KHR_materials_unlit" : {}
            },
            "name" : "Material.001",
            "pbrMetallicRoughness" : {
                "baseColorFactor" : [
                    0.9848865866661072,
                    0.9848865866661072,
                    0.9848865866661072,
                    1.0
                ],
                "baseColorTexture" : {
                    "index" : 0
                },
                "metallicFactor" : 0.0,
                "roughnessFactor" : 0.9
            }
        },
        {
            "extensions" : {
                "KHR_materials_unlit" : {}
            },
            "name" : "Material.002",
            "pbrMetallicRoughness" : {
                "baseColorFactor" : [
                    0.800000011920929,
                    0.800000011920929,
                    0.800000011920929,
                    1.0
                ],
                "metallicFactor" : 0.0,
                "roughnessFactor" : 0.9
            }
        }
    ],
    "meshes" : [
        {
            "name" : "Untitled",
            "primitives" : [
                {
                    "attributes" : {
                        "NORMAL" : 2,
                        "POSITION" : 1,
                        "TANGENT" : 3,
                        "TEXCOORD_0" : 4
                    },
                    "indices" : 0,
                    "material" : 1
                }
            ]
        },
        {
            "name" : "Untitled.001",
            "primitives" : [
                {
                    "attributes" : {
                        "NORMAL" : 7,
                        "POSITION" : 6,
                        "TANGENT" : 8,
                        "TEXCOORD_0" : 9
                    },
                    "indices" : 5,
                    "material" : 0
                }
            ]
        }
    ],
    "nodes" : [
        {
            "mesh" : 1,
            "name" : "Himalayas",
            "rotation" : [
                0.7071068286895752,
                0.0,
                -0.0,
                0.7071067094802856
            ],
            "scale" : [
                0.0010000000474974513,
                0.0010000000474974513,
                0.0010000000474974513
            ]
        },
        {
            "mesh" : 0,
            "name" : "Thin_CloudLayer",
            "rotation" : [
                0.6515684127807617,
                0.27469736337661743,
                -0.2746974229812622,
                0.6515683531761169
            ],
            "scale" : [
                0.0010000000474974513,
                0.0010000000474974513,
                0.0010000000474974513
            ],
            "translation" : [
                0.0,
                3.034728527069092,
                -0.0
            ]
        }
    ],
    "samplers" : [
        {}
    ],
    "scene" : 0,
    "scenes" : [
        {
            "name" : "Scene",
            "nodes" : [
                0,
                1
            ]
        }
    ],
    "textures" : [
        {
            "sampler" : 0,
            "source" : 0
        }
    ]
}
